<mxfile host="app.diagrams.net" modified="2022-07-04T09:18:16.541Z" agent="5.0 (Windows NT 10.0; Win64; x64) AppleWebKit/537.36 (KHTML, like Gecko) Chrome/103.0.0.0 Safari/537.36" etag="auUIxPj0THjgwp78-4pL" version="20.0.4" type="github">
  <diagram id="eKNrfERCbDWNxgh5Xfk8" name="Page-1">
    <mxGraphModel dx="1254" dy="1810" grid="1" gridSize="10" guides="1" tooltips="1" connect="1" arrows="1" fold="1" page="1" pageScale="1" pageWidth="827" pageHeight="1169" math="0" shadow="0">
      <root>
        <mxCell id="0" />
        <mxCell id="1" parent="0" />
        <mxCell id="nqKkO5HxPED7xxG9gMxs-17" value="Systemanwendung fÃ¼r &quot;Computer&quot;" style="text;html=1;strokeColor=none;fillColor=none;align=center;verticalAlign=middle;whiteSpace=wrap;rounded=0;fontStyle=1" vertex="1" parent="1">
          <mxGeometry x="350.75" y="-1160" width="208.5" height="30" as="geometry" />
        </mxCell>
        <mxCell id="nqKkO5HxPED7xxG9gMxs-18" value="" style="rounded=0;whiteSpace=wrap;html=1;labelPosition=center;verticalLabelPosition=top;align=center;verticalAlign=bottom;spacingTop=0;" vertex="1" parent="1">
          <mxGeometry x="80" y="-1120" width="250" height="440" as="geometry" />
        </mxCell>
        <mxCell id="nqKkO5HxPED7xxG9gMxs-19" value="" style="rounded=0;whiteSpace=wrap;html=1;" vertex="1" parent="1">
          <mxGeometry x="330" y="-1120" width="250" height="440" as="geometry" />
        </mxCell>
        <mxCell id="nqKkO5HxPED7xxG9gMxs-20" value="" style="rounded=0;whiteSpace=wrap;html=1;" vertex="1" parent="1">
          <mxGeometry x="580" y="-1120" width="250" height="440" as="geometry" />
        </mxCell>
        <mxCell id="nqKkO5HxPED7xxG9gMxs-21" value="Frontend" style="text;html=1;strokeColor=none;fillColor=none;align=center;verticalAlign=middle;whiteSpace=wrap;rounded=0;" vertex="1" parent="1">
          <mxGeometry x="175" y="-1120" width="60" height="30" as="geometry" />
        </mxCell>
        <mxCell id="nqKkO5HxPED7xxG9gMxs-22" value="Datenbank" style="text;html=1;strokeColor=none;fillColor=none;align=center;verticalAlign=middle;whiteSpace=wrap;rounded=0;" vertex="1" parent="1">
          <mxGeometry x="675" y="-1120" width="60" height="30" as="geometry" />
        </mxCell>
        <mxCell id="nqKkO5HxPED7xxG9gMxs-23" value="Backend" style="text;html=1;strokeColor=none;fillColor=none;align=center;verticalAlign=middle;whiteSpace=wrap;rounded=0;" vertex="1" parent="1">
          <mxGeometry x="425" y="-1120" width="60" height="30" as="geometry" />
        </mxCell>
        <mxCell id="nqKkO5HxPED7xxG9gMxs-24" value="" style="endArrow=none;html=1;rounded=0;" edge="1" parent="1">
          <mxGeometry width="50" height="50" relative="1" as="geometry">
            <mxPoint x="80" y="-1090" as="sourcePoint" />
            <mxPoint x="830" y="-1090" as="targetPoint" />
          </mxGeometry>
        </mxCell>
        <mxCell id="nqKkO5HxPED7xxG9gMxs-25" value="Home" style="swimlane;" vertex="1" parent="1">
          <mxGeometry x="105" y="-980" width="200" height="200" as="geometry" />
        </mxCell>
        <mxCell id="nqKkO5HxPED7xxG9gMxs-26" value="Articles" style="rounded=1;whiteSpace=wrap;html=1;" vertex="1" parent="nqKkO5HxPED7xxG9gMxs-25">
          <mxGeometry x="40" y="80" width="120" height="60" as="geometry" />
        </mxCell>
        <mxCell id="nqKkO5HxPED7xxG9gMxs-27" value="databaseArticles.php" style="swimlane;" vertex="1" parent="1">
          <mxGeometry x="355" y="-980" width="200" height="200" as="geometry" />
        </mxCell>
        <mxCell id="nqKkO5HxPED7xxG9gMxs-28" value="Get 2 article with tag 1*" style="rounded=0;whiteSpace=wrap;html=1;" vertex="1" parent="nqKkO5HxPED7xxG9gMxs-27">
          <mxGeometry x="30" y="90" width="140" height="40" as="geometry" />
        </mxCell>
        <mxCell id="nqKkO5HxPED7xxG9gMxs-29" value="database Tabelle" style="rounded=1;whiteSpace=wrap;html=1;" vertex="1" parent="1">
          <mxGeometry x="645" y="-900" width="120" height="60" as="geometry" />
        </mxCell>
        <mxCell id="nqKkO5HxPED7xxG9gMxs-30" value="&lt;i&gt;Ordner bzgl. Frontend&lt;/i&gt;: /Technik_Blog/pages/&lt;b&gt;computerContent&lt;/b&gt;" style="text;html=1;align=center;verticalAlign=middle;resizable=0;points=[];autosize=1;strokeColor=none;fillColor=none;" vertex="1" parent="1">
          <mxGeometry x="80" y="-660" width="360" height="30" as="geometry" />
        </mxCell>
        <mxCell id="nqKkO5HxPED7xxG9gMxs-31" value="*tag 2 is equivalent to tag &quot;Computer&quot;" style="text;html=1;strokeColor=none;fillColor=none;align=center;verticalAlign=middle;whiteSpace=wrap;rounded=0;" vertex="1" parent="1">
          <mxGeometry x="75" y="-630" width="230" height="30" as="geometry" />
        </mxCell>
        <mxCell id="nqKkO5HxPED7xxG9gMxs-32" value="GET" style="endArrow=classic;html=1;rounded=0;exitX=1;exitY=0.5;exitDx=0;exitDy=0;entryX=0;entryY=0.5;entryDx=0;entryDy=0;" edge="1" parent="1" source="nqKkO5HxPED7xxG9gMxs-26" target="nqKkO5HxPED7xxG9gMxs-28">
          <mxGeometry width="50" height="50" relative="1" as="geometry">
            <mxPoint x="380" y="-890" as="sourcePoint" />
            <mxPoint x="430" y="-940" as="targetPoint" />
          </mxGeometry>
        </mxCell>
        <mxCell id="nqKkO5HxPED7xxG9gMxs-33" value="SELECT" style="endArrow=classic;html=1;rounded=0;exitX=1;exitY=0.5;exitDx=0;exitDy=0;" edge="1" parent="1" source="nqKkO5HxPED7xxG9gMxs-28" target="nqKkO5HxPED7xxG9gMxs-29">
          <mxGeometry width="50" height="50" relative="1" as="geometry">
            <mxPoint x="380" y="-890" as="sourcePoint" />
            <mxPoint x="430" y="-940" as="targetPoint" />
          </mxGeometry>
        </mxCell>
      </root>
    </mxGraphModel>
  </diagram>
</mxfile>
